<svg width="38" height="26" viewBox="0 0 38 26" fill="none" xmlns="http://www.w3.org/2000/svg">
<path d="M36.4073 14.5072H1.58293C0.709148 14.5072 0 13.7225 0 12.7556C0 11.7886 0.709148 11.0039 1.58293 11.0039H36.4073C37.2811 11.0039 37.9903 11.7886 37.9903 12.7556C37.9903 13.7225 37.2811 14.5072 36.4073 14.5072Z" fill="#00B7EC"/>
<path d="M36.4073 3.50331H1.58293C0.709148 3.50331 0 2.71857 0 1.75166C0 0.784738 0.709148 0 1.58293 0H36.4073C37.2811 0 37.9903 0.784738 37.9903 1.75166C37.9903 2.71857 37.2811 3.50331 36.4073 3.50331Z" fill="#00B7EC"/>
<path d="M36.4073 25.3666H1.58293C0.709148 25.3666 0 24.5819 0 23.6149C0 22.648 0.709148 21.8633 1.58293 21.8633H36.4073C37.2811 21.8633 37.9903 22.648 37.9903 23.6149C37.9903 24.5819 37.2811 25.3666 36.4073 25.3666Z" fill="#00B7EC"/>
</svg>
